<svg width="70" height="70" viewBox="0 0 70 70" fill="none" xmlns="http://www.w3.org/2000/svg">
<path fill-rule="evenodd" clip-rule="evenodd" d="M35 52.5C35.5801 52.5 36.1365 52.2695 36.5468 51.8593C36.957 51.4491 37.1875 50.8927 37.1875 50.3125V24.9681L46.5762 34.3613C46.7796 34.5646 47.021 34.726 47.2868 34.836C47.5525 34.9461 47.8373 35.0028 48.125 35.0028C48.4126 35.0028 48.6974 34.9461 48.9631 34.836C49.2289 34.726 49.4703 34.5646 49.6737 34.3613C49.8771 34.1579 50.0384 33.9164 50.1485 33.6507C50.2586 33.3849 50.3152 33.1001 50.3152 32.8125C50.3152 32.5249 50.2586 32.2401 50.1485 31.9743C50.0384 31.7086 49.8771 31.4671 49.6737 31.2638L36.5487 18.1388C36.3455 17.935 36.1041 17.7734 35.8384 17.6631C35.5726 17.5529 35.2877 17.4961 35 17.4961C34.7122 17.4961 34.4273 17.5529 34.1616 17.6631C33.8958 17.7734 33.6544 17.935 33.4512 18.1388L20.3262 31.2638C19.9155 31.6745 19.6847 32.2316 19.6847 32.8125C19.6847 33.3934 19.9155 33.9505 20.3262 34.3613C20.737 34.772 21.2941 35.0028 21.875 35.0028C22.4559 35.0028 23.013 34.772 23.4237 34.3613L32.8125 24.9681V50.3125C32.8125 50.8927 33.0429 51.4491 33.4532 51.8593C33.8634 52.2695 34.4198 52.5 35 52.5Z" fill="#0F0D0E"/>
</svg>
