<svg width="28" height="28" viewBox="0 0 28 28" fill="none" xmlns="http://www.w3.org/2000/svg">
<path d="M15.6974 8.69745C15.9439 8.46276 16.272 8.33301 16.6123 8.33559C16.9527 8.33816 17.2788 8.47286 17.5217 8.71126C17.7646 8.94965 17.9055 9.27311 17.9145 9.61336C17.9234 9.95361 17.7999 10.2841 17.5699 10.535L10.5874 19.2675C10.4673 19.3968 10.3224 19.5006 10.1613 19.5726C10.0002 19.6446 9.82628 19.6834 9.64985 19.6867C9.47341 19.69 9.29813 19.6576 9.13448 19.5916C8.97084 19.5256 8.82218 19.4272 8.69741 19.3025L4.06691 14.672C3.93796 14.5518 3.83453 14.4069 3.76279 14.2459C3.69106 14.0849 3.65248 13.9111 3.64937 13.7349C3.64626 13.5586 3.67868 13.3836 3.74469 13.2202C3.81071 13.0567 3.90896 12.9083 4.03359 12.7836C4.15823 12.659 4.30668 12.5608 4.47011 12.4947C4.63354 12.4287 4.80859 12.3963 4.98482 12.3994C5.16105 12.4025 5.33485 12.4411 5.49585 12.5128C5.65685 12.5846 5.80175 12.688 5.92191 12.817L9.58641 16.4797L15.6624 8.73595C15.6733 8.72244 15.685 8.70959 15.6974 8.69745ZM14.0874 17.6925L15.6974 19.3025C15.8222 19.427 15.9707 19.5251 16.1342 19.5909C16.2977 19.6568 16.4727 19.6891 16.649 19.6858C16.8252 19.6825 16.9989 19.6438 17.1599 19.5719C17.3208 19.5001 17.4656 19.3965 17.5857 19.2675L24.5717 10.535C24.6972 10.4111 24.7964 10.2631 24.8635 10.1C24.9305 9.93693 24.964 9.76199 24.962 9.58565C24.9599 9.40931 24.9223 9.2352 24.8515 9.0737C24.7806 8.9122 24.678 8.76664 24.5496 8.6457C24.4213 8.52477 24.2699 8.43093 24.1045 8.36981C23.939 8.30869 23.763 8.28153 23.5868 8.28995C23.4107 8.29837 23.2381 8.34221 23.0792 8.41884C22.9204 8.49547 22.7786 8.60332 22.6624 8.73595L16.5847 16.4797L15.7359 15.6292L14.0857 17.6925H14.0874Z" fill="black"/>
</svg>
