<svg width="30" height="30" viewBox="0 0 30 30" fill="none" xmlns="http://www.w3.org/2000/svg">
<path fill-rule="evenodd" clip-rule="evenodd" d="M14.3365 8.71128C14.4235 8.62397 14.527 8.5547 14.6409 8.50744C14.7548 8.46018 14.8769 8.43585 15.0002 8.43585C15.1235 8.43585 15.2456 8.46018 15.3595 8.50744C15.4734 8.5547 15.5769 8.62397 15.664 8.71128L26.914 19.9613C27.09 20.1373 27.1889 20.3761 27.1889 20.625C27.1889 20.874 27.09 21.1127 26.914 21.2888C26.7379 21.4648 26.4992 21.5637 26.2502 21.5637C26.0013 21.5637 25.7625 21.4648 25.5865 21.2888L15.0002 10.7007L4.41396 21.2888C4.23792 21.4648 3.99916 21.5637 3.75021 21.5637C3.50125 21.5637 3.2625 21.4648 3.08646 21.2888C2.91042 21.1127 2.81152 20.874 2.81152 20.625C2.81152 20.3761 2.91042 20.1373 3.08646 19.9613L14.3365 8.71128Z" fill="#0F0D0E"/>
</svg>
