<svg width="30" height="30" viewBox="0 0 30 30" fill="none" xmlns="http://www.w3.org/2000/svg">
<path d="M5.625 3.75C5.625 3.25272 5.82254 2.77581 6.17417 2.42417C6.52581 2.07254 7.00272 1.875 7.5 1.875H22.5C22.9973 1.875 23.4742 2.07254 23.8258 2.42417C24.1775 2.77581 24.375 3.25272 24.375 3.75V28.125H27.1875C27.4361 28.125 27.6746 28.2238 27.8504 28.3996C28.0262 28.5754 28.125 28.8139 28.125 29.0625C28.125 29.3111 28.0262 29.5496 27.8504 29.7254C27.6746 29.9012 27.4361 30 27.1875 30H2.8125C2.56386 30 2.3254 29.9012 2.14959 29.7254C1.97377 29.5496 1.875 29.3111 1.875 29.0625C1.875 28.8139 1.97377 28.5754 2.14959 28.3996C2.3254 28.2238 2.56386 28.125 2.8125 28.125H5.625V3.75ZM7.5 28.125H22.5V3.75H7.5V28.125Z" fill="#FCBA28"/>
<path d="M16.875 16.875C16.875 17.3723 17.0725 17.8492 17.4242 18.2008C17.7758 18.5525 18.2527 18.75 18.75 18.75C19.2473 18.75 19.7242 18.5525 20.0758 18.2008C20.4275 17.8492 20.625 17.3723 20.625 16.875C20.625 16.3777 20.4275 15.9008 20.0758 15.5492C19.7242 15.1975 19.2473 15 18.75 15C18.2527 15 17.7758 15.1975 17.4242 15.5492C17.0725 15.9008 16.875 16.3777 16.875 16.875Z" fill="#FCBA28"/>
</svg>
