<svg width="50" height="50" viewBox="0 0 50 50" fill="none" xmlns="http://www.w3.org/2000/svg">
<g clip-path="url(#clip0_202_280)">
<path fill-rule="evenodd" clip-rule="evenodd" d="M43.75 14.0625V34.375H40.625V14.0625H34.375C33.1318 14.0625 31.9395 13.5686 31.0604 12.6896C30.1814 11.8105 29.6875 10.6182 29.6875 9.375V3.125H12.5C11.6712 3.125 10.8763 3.45424 10.2903 4.04029C9.70424 4.62634 9.375 5.4212 9.375 6.25V34.375H6.25V6.25C6.25 4.5924 6.90848 3.00269 8.08058 1.83058C9.25268 0.65848 10.8424 0 12.5 0L29.6875 0L43.75 14.0625ZM22.3781 44.3375V42.7063C22.4005 42.0201 22.2759 41.3371 22.0125 40.7031C21.8051 40.2088 21.4547 39.7876 21.0063 39.4937C20.5665 39.2215 20.0577 39.0815 19.5406 39.0906C19.0212 39.0823 18.5104 39.2233 18.0688 39.4969C17.624 39.7918 17.2762 40.2114 17.0687 40.7031C16.8054 41.3371 16.6807 42.0201 16.7031 42.7063V44.3375C16.7031 45.1375 16.8281 45.8063 17.0687 46.3406C17.2756 46.8335 17.6235 47.2542 18.0688 47.55C18.5127 47.8168 19.0228 47.9532 19.5406 47.9437C20.0565 47.9531 20.5645 47.8166 21.0063 47.55C21.4542 47.257 21.8045 46.837 22.0125 46.3438C22.2754 45.7085 22.4 45.0246 22.3781 44.3375ZM24.8875 42.725V44.3281C24.8875 45.5 24.675 46.5156 24.2469 47.3688C23.8424 48.1908 23.2014 48.8732 22.4062 49.3281C21.6125 49.7781 20.6562 50.0031 19.5406 50.0031C18.5402 50.0294 17.5499 49.7969 16.6656 49.3281C15.8696 48.8742 15.2283 48.1916 14.825 47.3688C14.3769 46.4192 14.1575 45.3778 14.1844 44.3281V42.725C14.1844 41.5406 14.4 40.525 14.825 39.6781C15.2531 38.8219 15.8656 38.1688 16.6688 37.7188C17.4719 37.2594 18.4313 37.0312 19.5438 37.0312C20.6594 37.0312 21.6125 37.2594 22.4062 37.7188C23.2063 38.175 23.8188 38.8312 24.25 39.6875C24.675 40.5344 24.8875 41.5469 24.8875 42.725ZM3.125 49.7656V37.2687H7.68438C8.95313 37.2687 10 37.5125 10.825 38.0031C11.65 38.4906 12.2625 39.1969 12.6656 40.1281C13.0719 41.0531 13.2781 42.175 13.2781 43.4844C13.2781 44.8031 13.075 45.9344 12.6656 46.8719C12.2563 47.8125 11.6344 48.5281 10.8062 49.025C9.98125 49.5187 8.94063 49.7656 7.68438 49.7656H3.125ZM7.35625 39.2844H5.59375V47.7438H7.35312C7.93125 47.7438 8.43437 47.6562 8.8625 47.4875C9.27412 47.3222 9.63435 47.0504 9.90625 46.7C10.1813 46.3438 10.3844 45.9062 10.5187 45.3813C10.6695 44.7764 10.7409 44.1545 10.7312 43.5312C10.7313 42.5938 10.6062 41.8063 10.3625 41.1781C10.1611 40.5957 9.77199 40.0967 9.25625 39.7594C8.7625 39.4406 8.12813 39.2844 7.35 39.2844H7.35625ZM28.4687 42.7719C28.4687 41.9969 28.575 41.3344 28.7906 40.7938C28.9757 40.296 29.3027 39.8636 29.7313 39.55C30.1693 39.2558 30.6881 39.105 31.2156 39.1187C31.6844 39.1187 32.1 39.2188 32.4594 39.4219C32.8127 39.6096 33.1078 39.8906 33.3125 40.2344C33.5303 40.5958 33.6589 41.004 33.6875 41.425H36.0781V41.1969C36.0574 40.6212 35.9172 40.0562 35.6665 39.5376C35.4159 39.019 35.0601 38.5582 34.6219 38.1844C34.1721 37.8035 33.6518 37.5147 33.0906 37.3344C32.4809 37.1278 31.8407 37.0253 31.1969 37.0312C30.0875 37.0312 29.1344 37.2625 28.35 37.7281C27.5687 38.1906 26.975 38.85 26.5656 39.7062C26.1563 40.5594 25.95 41.5812 25.95 42.7625V44.3188C25.95 45.5031 26.1531 46.5187 26.5562 47.3688C26.9625 48.2156 27.5594 48.8687 28.3406 49.3281C29.1219 49.7781 30.075 50.0031 31.1969 50.0031C32.1125 50.0031 32.9312 49.8344 33.65 49.4906C34.3687 49.1469 34.9438 48.6781 35.3719 48.0719C35.803 47.4513 36.048 46.7206 36.0781 45.9656V45.7281H33.6875C33.6594 46.1313 33.5339 46.5216 33.3219 46.8656C33.112 47.1957 32.8174 47.4633 32.4688 47.6406C32.0788 47.8305 31.6492 47.9248 31.2156 47.9156C30.688 47.9315 30.1677 47.7889 29.7219 47.5062C29.2947 47.2001 28.9701 46.772 28.7906 46.2781C28.5611 45.651 28.4519 44.9863 28.4687 44.3188V42.7719ZM44.3812 37.2719H47.175L43.1906 43.5406L47.1094 49.7656H44.2719L41.6156 45.3438H41.5062L38.8438 49.7656H36.15L40.025 43.4688L36.1875 37.2687H39.1L41.7 41.7656H41.8094L44.3812 37.2687V37.2719Z" fill="#FCBA28"/>
</g>
<defs>
<clipPath id="clip0_202_280">
<rect width="50" height="50" fill="white"/>
</clipPath>
</defs>
</svg>
