<svg width="50" height="50" viewBox="0 0 50 50" fill="none" xmlns="http://www.w3.org/2000/svg">
<path fill-rule="evenodd" clip-rule="evenodd" d="M43.75 14.0625V43.75C43.75 45.4076 43.0915 46.9973 41.9194 48.1694C40.7473 49.3415 39.1576 50 37.5 50H34.375V46.875H37.5C38.3288 46.875 39.1237 46.5458 39.7097 45.9597C40.2958 45.3737 40.625 44.5788 40.625 43.75V14.0625H34.375C33.1318 14.0625 31.9395 13.5686 31.0604 12.6896C30.1814 11.8105 29.6875 10.6182 29.6875 9.375V3.125H12.5C11.6712 3.125 10.8763 3.45424 10.2903 4.04029C9.70424 4.62634 9.375 5.4212 9.375 6.25V34.375H6.25V6.25C6.25 4.5924 6.90848 3.00269 8.08058 1.83058C9.25268 0.65848 10.8424 0 12.5 0L29.6875 0L43.75 14.0625ZM5 37.0313H0V49.5281H2.47188V45.3344H4.98125C5.87812 45.3344 6.64062 45.1562 7.26875 44.7937C7.90312 44.4281 8.3875 43.9344 8.71563 43.3125C9.05621 42.6599 9.22911 41.9329 9.21875 41.1969C9.21875 40.4156 9.05313 39.7094 8.725 39.0812C8.39863 38.4569 7.89965 37.9394 7.2875 37.5906C6.6625 37.2156 5.90313 37.0313 5 37.0313V37.0313ZM6.70312 41.1969C6.71439 41.6086 6.62311 42.0167 6.4375 42.3844C6.27098 42.7045 6.01178 42.967 5.69375 43.1375C5.32996 43.3175 4.92758 43.4055 4.52188 43.3937H2.4625V39H4.525C5.20625 39 5.74063 39.1875 6.125 39.5656C6.50938 39.9469 6.70312 40.4906 6.70312 41.1969ZM10.5062 37.0313V49.5281H15.0688C16.3219 49.5281 17.3625 49.2781 18.1875 48.7875C19.0224 48.288 19.6743 47.5331 20.0469 46.6344C20.4531 45.6969 20.6594 44.5656 20.6594 43.2469C20.6594 41.9344 20.4562 40.8156 20.0469 39.8875C19.6787 38.9991 19.033 38.2537 18.2063 37.7625C17.3813 37.275 16.3344 37.0313 15.0656 37.0313H10.5062V37.0313ZM12.9781 39.0469H14.7375C15.5125 39.0469 16.1437 39.2031 16.6406 39.5219C17.1564 39.8592 17.5455 40.3582 17.7469 40.9406C17.9937 41.5687 18.1156 42.3531 18.1156 43.2938C18.1253 43.917 18.0539 44.5389 17.9031 45.1438C17.7918 45.6208 17.5833 46.0697 17.2906 46.4625C17.0187 46.8129 16.6585 47.0847 16.2469 47.25C15.7646 47.4305 15.2523 47.5174 14.7375 47.5062H12.9781V39.0469V39.0469ZM24.675 44.5563V49.5281H22.2062V37.0313H30.1688V39.0719H24.675V42.5625H29.6937V44.5563H24.675V44.5563Z" fill="#FCBA28"/>
</svg>
