<svg width="278" height="1899" viewBox="0 0 278 1899" fill="none" xmlns="http://www.w3.org/2000/svg">
<path d="M335.068 144.551L335.068 203.389C335.068 223.896 331.569 242.858 324.57 260.273C317.734 277.852 307.969 293.151 295.273 306.172C282.578 319.355 267.441 329.609 249.863 336.934C232.448 344.258 213.161 347.92 192.002 347.92C170.843 347.92 151.475 344.258 133.896 336.934C116.318 329.609 101.1 319.355 88.2422 306.172C75.5469 293.151 65.6999 277.852 58.7012 260.273C51.8652 242.858 48.4473 223.896 48.4473 203.389L48.4473 144.551C48.4473 124.043 51.8652 105.081 58.7012 87.666C65.6999 70.2507 75.5469 54.9512 88.2422 41.7676C100.938 28.7467 115.993 18.5742 133.408 11.25C150.986 4.08855 170.355 0.507816 191.514 0.507816C212.673 0.507816 231.96 4.08854 249.375 11.25C266.953 18.5742 282.09 28.7467 294.785 41.7676C307.643 54.9512 317.572 70.2507 324.57 87.666C331.569 105.081 335.068 124.043 335.068 144.551ZM297.959 144.551C297.959 123.229 293.483 105.163 284.531 90.3516C275.742 75.5404 263.372 64.3099 247.422 56.6602C231.471 49.0104 212.835 45.1856 191.514 45.1856C175.4 45.1856 160.833 47.3014 147.813 51.5332C134.792 55.9277 123.643 62.3568 114.365 70.8203C105.088 79.2839 97.9264 89.7005 92.8809 102.07C87.8353 114.44 85.3125 128.6 85.3125 144.551L85.3125 203.877C85.3125 225.036 89.707 242.939 98.4961 257.588C107.448 272.399 119.899 283.63 135.85 291.279C151.963 299.092 170.68 302.998 192.002 302.998C207.952 302.998 222.438 300.801 235.459 296.406C248.48 292.012 259.629 285.583 268.906 277.119C278.184 268.818 285.345 258.483 290.391 246.113C295.436 233.906 297.959 219.827 297.959 203.877L297.959 144.551ZM385.117 196.797L0.351565 196.797L0.351565 151.631L385.117 151.631L385.117 196.797ZM96.543 456.563L370.469 631.611L370.469 678.73L15 678.73L15 631.611L289.17 631.611L15 456.563L15 409.688L370.469 409.688L370.469 456.563L96.543 456.563ZM185.654 873.311L185.654 831.074L215.684 831.074L215.684 871.602C215.684 889.505 218.206 903.991 223.252 915.059C228.298 926.126 235.296 934.183 244.248 939.229C253.2 944.274 263.535 946.797 275.254 946.797C286.484 946.797 296.738 944.03 306.016 938.496C315.456 932.962 322.943 924.417 328.477 912.861C334.173 901.305 337.021 886.413 337.021 868.184C337.021 854.512 334.417 842.142 329.209 831.074C324.163 820.007 317.083 811.217 307.969 804.707C299.017 798.197 288.682 794.941 276.963 794.941L276.963 747.822C292.1 747.822 305.69 750.996 317.734 757.344C329.941 763.691 340.277 772.399 348.74 783.467C357.367 794.535 363.958 807.311 368.516 821.797C373.073 836.445 375.352 851.908 375.352 868.184C375.352 887.227 373.154 904.479 368.76 919.941C364.528 935.404 358.18 948.669 349.717 959.736C341.253 970.804 330.755 979.268 318.223 985.127C305.69 990.986 291.123 993.916 274.521 993.916C262.314 993.916 250.84 991.068 240.098 985.371C229.355 979.674 219.915 971.536 211.777 960.957C203.639 950.378 197.21 937.682 192.49 922.871C187.933 908.06 185.654 891.54 185.654 873.311ZM206.406 831.074L206.406 873.311C206.406 893.33 204.372 911.152 200.303 926.777C196.234 942.402 190.293 955.586 182.48 966.328C174.668 977.07 164.984 985.208 153.428 990.742C142.035 996.439 128.932 999.287 114.121 999.287C97.5195 999.287 82.7897 996.032 69.9317 989.521C57.0736 983.174 46.1686 974.141 37.2168 962.422C28.265 950.703 21.5104 936.787 16.9531 920.674C12.3958 904.723 10.1172 887.227 10.1172 868.184C10.1172 852.884 12.0703 837.747 15.9766 822.773C20.0456 807.962 26.2305 794.535 34.5313 782.49C42.9948 770.446 53.737 760.762 66.7578 753.438C79.7787 746.276 95.4037 742.695 113.633 742.695L113.633 789.814C101.751 789.814 90.8464 793.07 80.918 799.58C70.9896 806.253 63.0143 815.449 56.9922 827.168C51.1328 838.887 48.2031 852.559 48.2031 868.184C48.2031 886.087 50.9701 901.224 56.5039 913.594C62.2005 926.126 69.9317 935.648 79.6973 942.158C89.6257 948.831 100.775 952.168 113.145 952.168C124.049 952.168 133.49 950.378 141.465 946.797C149.603 943.379 156.276 938.252 161.484 931.416C166.693 924.743 170.518 916.361 172.959 906.27C175.563 896.341 176.865 884.785 176.865 871.602L176.865 831.074L206.406 831.074ZM370.469 1188.74L15 1188.74L15 1142.35L370.469 1142.35L370.469 1188.74ZM370.469 1303L331.895 1303L331.895 1028.34L370.469 1028.34L370.469 1303ZM53.3301 1581.56L15 1581.56L15 1393.33L53.3301 1393.33L53.3301 1581.56ZM370.469 1402.85L15 1402.85L15 1355.73L370.469 1355.73L370.469 1402.85ZM217.637 1556.66L179.307 1556.66L179.307 1393.33L217.637 1393.33L217.637 1556.66ZM370.469 1579.12L331.895 1579.12L331.895 1393.33L370.469 1393.33L370.469 1579.12ZM370.469 1670.43L234.238 1755.88L370.469 1841.33L370.469 1896.26L194.443 1783.96L15 1898.95L15 1843.53L153.916 1755.88L15 1668.23L15 1612.81L194.443 1727.8L370.469 1615.5L370.469 1670.43Z" fill="url(#paint0_linear_15_37)" fill-opacity="0.2"/>
<defs>
<linearGradient id="paint0_linear_15_37" x1="479" y1="946.5" x2="-107" y2="946.5" gradientUnits="userSpaceOnUse">
<stop offset="0.359375" stop-color="#0038FF"/>
<stop offset="1" stop-color="#1E4391" stop-opacity="0"/>
</linearGradient>
</defs>
</svg>
