<svg width="20" height="20" viewBox="0 0 20 20" fill="none" xmlns="http://www.w3.org/2000/svg">
<path d="M3.0625 9.24999L9 1.33374C9.11643 1.1785 9.26741 1.05249 9.44098 0.965706C9.61455 0.878922 9.80594 0.83374 10 0.83374C10.1941 0.83374 10.3854 0.878922 10.559 0.965706C10.7326 1.05249 10.8836 1.1785 11 1.33374L16.9375 9.24999C17.0998 9.46636 17.1875 9.72953 17.1875 9.99999C17.1875 10.2705 17.0998 10.5336 16.9375 10.75L11 18.6662C10.8836 18.8215 10.7326 18.9475 10.559 19.0343C10.3854 19.1211 10.1941 19.1662 10 19.1662C9.80594 19.1662 9.61455 19.1211 9.44098 19.0343C9.26741 18.9475 9.11643 18.8215 9 18.6662L3.0625 10.75C2.90022 10.5336 2.8125 10.2705 2.8125 9.99999C2.8125 9.72953 2.90022 9.46636 3.0625 9.24999Z" fill="#FCBA28"/>
</svg>
