<svg width="30" height="30" viewBox="0 0 30 30" fill="none" xmlns="http://www.w3.org/2000/svg">
<g clip-path="url(#clip0_280_99)">
<path d="M6.85116 2.49C6.74047 2.34762 6.60075 2.23041 6.44129 2.14618C6.28182 2.06194 6.10626 2.01259 5.92625 2.00142C5.74625 1.99025 5.56593 2.0175 5.39727 2.08137C5.22862 2.14525 5.07548 2.24427 4.94803 2.37188L3.00928 4.3125C2.10366 5.22 1.76991 6.50438 2.16553 7.63125C3.80754 12.2955 6.47858 16.5302 9.98053 20.0213C13.4716 23.5232 17.7063 26.1942 22.3705 27.8363C23.4974 28.2319 24.7818 27.8981 25.6893 26.9925L27.628 25.0538C27.7556 24.9263 27.8547 24.7732 27.9185 24.6045C27.9824 24.4359 28.0097 24.2555 27.9985 24.0755C27.9873 23.8955 27.938 23.72 27.8537 23.5605C27.7695 23.401 27.6523 23.2613 27.5099 23.1506L23.1843 19.7869C23.0322 19.6689 22.8552 19.587 22.6669 19.5474C22.4785 19.5078 22.2835 19.5114 22.0968 19.5581L17.9905 20.5838C17.4424 20.7207 16.8682 20.7135 16.3237 20.5627C15.7793 20.4118 15.2832 20.1226 14.8837 19.7231L10.2787 15.1163C9.87885 14.7169 9.58927 14.2209 9.43812 13.6764C9.28697 13.132 9.2794 12.5576 9.41616 12.0094L10.4437 7.90313C10.4904 7.71637 10.494 7.52145 10.4544 7.33306C10.4148 7.14467 10.3329 6.96775 10.2149 6.81563L6.85116 2.49ZM3.53241 0.958129C3.86052 0.629909 4.25471 0.375248 4.68879 0.211056C5.12288 0.046864 5.58692 -0.0231023 6.05012 0.00580325C6.51332 0.0347088 6.96507 0.161825 7.37537 0.37871C7.78567 0.595596 8.14514 0.897288 8.42991 1.26375L11.7937 5.5875C12.4105 6.38063 12.628 7.41375 12.3843 8.38875L11.3587 12.495C11.3056 12.7077 11.3085 12.9305 11.367 13.1417C11.4255 13.353 11.5376 13.5455 11.6924 13.7006L16.2993 18.3075C16.4546 18.4627 16.6475 18.575 16.8591 18.6334C17.0707 18.6919 17.2938 18.6946 17.5068 18.6413L21.6112 17.6156C22.0923 17.4953 22.5945 17.486 23.0798 17.5883C23.5651 17.6906 24.0208 17.9019 24.4124 18.2063L28.7362 21.57C30.2905 22.7794 30.433 25.0763 29.0418 26.4656L27.103 28.4044C25.7155 29.7919 23.6418 30.4013 21.7087 29.7206C16.7609 27.9797 12.2685 25.1472 8.56491 21.4331C4.85107 17.73 2.01855 13.2384 0.277406 8.29125C-0.401344 6.36 0.208031 4.28438 1.59553 2.89688L3.53428 0.958129H3.53241Z" fill="#FCBA28"/>
</g>
<defs>
<clipPath id="clip0_280_99">
<rect width="30" height="30" fill="white"/>
</clipPath>
</defs>
</svg>
