<?xml version="1.0" standalone="no"?>
<!DOCTYPE svg PUBLIC "-//W3C//DTD SVG 20010904//EN"
 "http://www.w3.org/TR/2001/REC-SVG-20010904/DTD/svg10.dtd">
<svg version="1.0" xmlns="http://www.w3.org/2000/svg"
 width="512.000000pt" height="512.000000pt" viewBox="0 0 512.000000 512.000000"
 preserveAspectRatio="xMidYMid meet">
<metadata>
Created by potrace 1.14, written by Peter Selinger 2001-2017
</metadata>
<g transform="translate(0.000000,512.000000) scale(0.100000,-0.100000)"
fill="#000000" stroke="none">
<path d="M2442 4750 c-156 -43 -281 -142 -389 -307 -57 -87 -130 -235 -140
-284 -8 -42 -17 -43 -65 -12 -74 47 -182 94 -248 107 -14 3 -47 9 -75 15 -61
12 -218 11 -264 -1 -18 -5 -43 -11 -54 -13 -50 -10 -151 -68 -196 -113 -61
-61 -114 -168 -140 -286 -24 -110 -22 -331 5 -436 4 -14 8 -34 10 -45 1 -11 5
-29 8 -40 25 -92 28 -119 15 -124 -32 -10 -150 -78 -214 -122 -98 -67 -187
-155 -238 -236 -164 -255 -101 -573 152 -761 20 -15 38 -30 41 -34 23 -29 279
-133 393 -158 31 -7 57 -17 57 -21 0 -4 -18 -43 -40 -87 -102 -205 -124 -435
-55 -577 52 -108 189 -262 274 -309 93 -50 216 -59 426 -30 11 1 20 3 20 4 0
1 12 3 26 5 41 5 89 13 148 25 55 10 71 7 71 -13 0 -7 23 -57 51 -112 108
-214 224 -336 382 -403 54 -23 75 -26 167 -26 134 1 224 27 334 98 129 83 248
249 297 414 7 23 15 42 19 42 4 0 43 -9 86 -19 219 -54 393 -41 561 40 84 41
182 126 219 188 10 17 22 31 26 31 4 0 8 8 8 18 0 10 4 22 9 27 18 19 43 140
42 205 -1 121 -32 228 -112 381 -23 44 -40 81 -38 83 2 1 54 19 115 38 235 76
400 175 500 303 32 41 99 165 89 165 -3 0 -1 8 4 18 24 45 29 180 10 271 -15
75 -69 188 -109 231 -8 9 -31 34 -50 56 -74 84 -226 195 -337 245 -58 26 -59
27 -39 114 37 157 49 356 33 505 -29 251 -140 398 -335 444 -161 37 -408 -19
-649 -150 l-62 -33 -11 42 c-22 85 -81 251 -110 308 -87 177 -211 293 -350
332 -64 17 -210 16 -278 -3z m262 -158 c27 -9 71 -36 97 -60 119 -107 198
-296 264 -632 5 -26 33 -187 40 -230 2 -14 7 -47 10 -75 9 -79 16 -137 20
-170 2 -16 7 -57 10 -90 4 -33 8 -70 10 -83 2 -13 7 -52 11 -89 l6 -65 -33 8
c-19 5 -74 9 -124 9 -96 0 -175 -20 -252 -62 -24 -13 -43 -20 -44 -16 -5 47
-56 319 -79 424 -12 52 -23 105 -26 119 -3 14 -10 43 -16 65 -5 22 -12 47 -13
55 -2 8 -15 53 -29 100 -94 316 -189 460 -302 460 -75 0 -146 -93 -175 -229
-7 -31 -14 -58 -16 -60 -1 -2 -11 3 -22 13 -18 17 -18 18 5 86 108 320 284
514 487 539 74 9 106 6 171 -17z m-401 -484 c38 -47 93 -170 131 -293 24 -79
74 -266 82 -315 3 -14 11 -52 19 -85 7 -33 12 -61 10 -63 -9 -9 -129 127 -182
206 -32 48 -60 89 -63 92 -3 3 -23 31 -45 64 -21 32 -52 75 -68 94 -25 32 -27
42 -22 82 17 129 65 260 96 260 4 0 23 -19 42 -42z m-754 -4 c141 -31 236 -88
365 -219 90 -91 186 -206 186 -224 0 -6 3 -11 8 -11 4 0 20 -21 37 -48 16 -26
32 -49 35 -52 12 -12 70 -101 70 -109 0 -5 3 -11 8 -13 4 -1 23 -23 42 -48 19
-25 54 -64 77 -88 24 -24 43 -44 43 -45 0 -1 -35 -3 -78 -3 -111 -2 -227 -45
-361 -134 -71 -47 -68 -48 -112 37 -12 23 -29 50 -38 60 -9 10 -29 35 -45 57
-48 64 -194 212 -254 258 -31 23 -59 46 -62 49 -3 3 -36 21 -75 39 -90 43
-182 48 -232 12 -80 -57 -94 -137 -50 -290 16 -54 23 -97 19 -120 -8 -54 -7
-279 1 -337 4 -27 14 -79 23 -115 21 -90 21 -102 4 -105 -130 -24 -228 -71
-301 -145 -84 -86 -124 -215 -94 -301 8 -21 12 -39 9 -39 -19 0 -92 57 -146
115 -108 114 -137 296 -70 435 68 140 267 297 473 374 73 26 78 49 40 183 -17
59 -33 126 -37 148 -3 22 -7 42 -9 45 -2 3 -7 37 -11 75 -10 92 -7 212 6 266
6 24 12 51 14 60 8 30 50 114 73 147 69 93 252 129 442 86z m2377 -22 c118
-61 166 -200 159 -452 -2 -74 -6 -145 -8 -156 -3 -12 -8 -39 -11 -60 -3 -22
-16 -85 -28 -142 -20 -95 -20 -105 -6 -136 12 -24 28 -37 65 -51 66 -24 137
-62 208 -110 234 -158 328 -339 277 -535 -19 -73 -51 -127 -114 -186 -74 -70
-80 -73 -72 -32 10 54 6 101 -12 153 -40 121 -141 211 -324 292 -45 19 -74 38
-72 45 36 130 33 287 -6 430 -21 74 -21 67 8 170 27 99 31 201 8 248 -24 51
-84 82 -151 79 -161 -8 -322 -116 -480 -321 -28 -37 -52 -66 -53 -65 -1 1 -5
27 -8 57 -4 30 -9 71 -11 90 -2 19 -7 58 -10 85 -4 28 -8 61 -10 75 -2 14 -6
48 -10 75 -6 51 -33 226 -40 257 -6 33 246 156 407 198 101 26 237 23 294 -8z
m-2584 -572 c49 -23 71 -36 113 -68 38 -30 156 -144 152 -148 -1 -2 -23 2 -47
8 -25 6 -108 12 -184 12 l-139 1 -14 40 c-7 22 -16 65 -19 96 -5 51 -3 58 17
73 27 18 59 15 121 -14z m2547 11 c18 -11 16 -63 -5 -161 -17 -80 -18 -81 -43
-74 -50 14 -199 14 -246 0 -25 -8 -49 -15 -53 -16 -4 -1 -27 -10 -51 -21 -24
-10 -46 -19 -48 -19 -8 0 74 95 125 146 109 108 267 180 321 145z m-2411 -365
c15 -2 45 -7 66 -11 111 -19 227 -107 256 -194 19 -59 52 -86 100 -82 9 0 56
31 105 67 50 37 128 85 175 107 78 38 92 42 166 42 70 0 85 -3 120 -26 46 -31
98 -114 115 -184 7 -27 16 -67 21 -88 l9 -38 72 59 c100 82 151 112 230 137
123 39 232 17 320 -64 24 -23 46 -41 49 -41 3 0 21 24 40 53 61 90 163 185
232 216 79 35 188 45 248 22 34 -13 53 -96 52 -231 -1 -130 -24 -198 -89 -265
-74 -76 -207 -124 -333 -122 l-68 2 -18 -80 c-10 -44 -18 -82 -19 -85 0 -17
-40 -117 -58 -150 -17 -30 -29 -40 -48 -40 -42 0 -102 -41 -124 -84 -31 -58
-26 -122 16 -209 101 -213 133 -354 99 -438 -45 -111 -290 -115 -594 -10 -58
20 -58 20 -116 0 -329 -115 -537 -93 -570 58 -10 44 -9 145 1 178 4 11 9 36
12 55 8 43 51 171 76 224 22 47 24 94 5 139 -17 40 -41 61 -88 76 -72 24 -140
135 -178 292 -10 45 -21 83 -23 85 -2 2 -26 -3 -53 -11 -105 -32 -205 -9 -272
61 -49 52 -105 183 -118 274 -13 92 -19 216 -12 280 3 22 9 26 48 30 48 5 104
4 148 -4z m2589 -618 c96 -47 182 -122 207 -181 9 -23 14 -57 12 -88 -4 -56
-50 -154 -81 -175 -29 -19 -203 -75 -250 -80 -39 -4 -41 -3 -95 67 -30 40 -62
80 -70 89 -8 10 -33 39 -55 66 -22 26 -57 68 -78 92 -37 43 -40 62 -11 62 9 0
49 16 90 36 52 25 92 54 137 99 72 75 68 74 194 13z m-2755 -80 c25 -27 71
-60 102 -74 31 -14 56 -29 56 -32 0 -4 -17 -26 -38 -48 -64 -72 -86 -97 -127
-149 -22 -27 -44 -55 -50 -61 -5 -7 -21 -25 -34 -42 -22 -28 -26 -29 -65 -20
-22 5 -49 11 -60 13 -10 3 -23 11 -30 18 -6 8 -40 36 -76 62 -116 86 -132 112
-117 183 25 118 110 188 280 232 l72 18 20 -26 c11 -15 41 -48 67 -74z m338
-180 c0 -5 13 -37 30 -71 37 -77 99 -150 156 -183 52 -30 56 -21 -64 -151
-154 -168 -206 -239 -275 -377 -52 -106 -60 -186 -27 -277 27 -75 73 -139 123
-170 20 -13 37 -27 37 -31 0 -8 -50 -11 -162 -10 -84 1 -128 22 -203 99 -69
72 -124 152 -141 209 -16 55 -12 167 10 270 7 34 56 144 82 185 13 21 24 43
24 48 0 5 14 24 32 42 18 19 41 52 51 74 10 22 21 42 25 45 5 3 41 45 82 95
41 49 93 110 115 135 22 25 49 58 60 73 14 20 22 23 32 15 7 -6 13 -15 13 -20z
m1909 -73 c14 -16 55 -66 91 -110 35 -44 67 -82 70 -85 21 -19 132 -177 171
-245 164 -285 166 -478 6 -627 -82 -76 -197 -119 -330 -123 -110 -4 -115 0
-59 50 47 43 88 110 99 162 37 188 -67 422 -333 751 -24 29 -25 32 -7 32 31 0
98 49 127 93 14 23 38 76 53 119 l28 79 29 -33 c16 -18 41 -46 55 -63z m-1780
-522 c-12 -56 -12 -181 0 -237 14 -58 34 -98 74 -150 22 -27 31 -51 33 -82 2
-24 8 -62 14 -85 15 -55 7 -59 -88 -43 -114 20 -170 52 -211 119 -52 86 -52
138 -1 244 23 47 58 108 78 135 41 58 103 136 107 136 2 0 -1 -17 -6 -37z
m1680 -198 c32 -76 44 -131 42 -185 -2 -48 -20 -110 -31 -110 -6 0 -10 -5 -10
-11 0 -18 -41 -48 -105 -78 -33 -16 -67 -31 -75 -33 -18 -5 -103 31 -177 75
-53 32 -64 43 -40 44 81 3 187 46 235 96 59 62 77 112 77 212 0 50 -3 110 -7
135 l-7 45 34 -60 c19 -33 48 -91 64 -130z m-821 -236 c37 -11 78 -24 92 -28
24 -8 24 -9 -15 -26 -111 -48 -167 -50 -274 -8 -67 26 -76 41 -26 44 11 0 43
9 70 19 67 23 75 23 153 -1z m-508 -127 c12 -36 28 -78 35 -93 21 -40 73 -79
98 -75 12 3 27 5 34 5 21 2 57 73 62 124 1 4 14 1 29 -7 106 -55 235 -52 375
9 13 5 17 2 18 -14 3 -51 26 -96 55 -110 34 -15 86 7 110 48 10 17 21 31 25
31 3 0 23 -11 43 -25 20 -14 42 -25 48 -25 14 0 4 -46 -26 -121 -94 -233 -261
-360 -474 -360 -152 0 -299 129 -407 356 -44 93 -90 227 -101 294 -6 38 -6 38
24 33 28 -4 33 -10 52 -70z m126 70 c11 -7 13 -107 2 -118 -3 -3 -16 20 -27
52 -18 46 -19 59 -9 65 16 11 20 11 34 1z m656 -8 c7 -6 -18 -73 -32 -87 -6
-7 -7 76 -1 91 2 4 28 2 33 -4z"/>
<path d="M2410 2590 c-2 -100 -27 -161 -73 -176 -24 -8 -117 -7 -157 1 -14 3
-41 8 -60 11 -19 3 -42 7 -50 9 -8 3 -32 7 -54 11 -21 3 -48 7 -59 10 -20 3
-20 3 -1 -14 50 -44 154 -102 183 -102 6 0 11 -5 11 -11 0 -15 -96 -6 -141 14
-26 11 -42 27 -59 61 -20 43 -23 45 -36 29 -21 -28 -17 -96 7 -127 36 -46 86
-63 171 -58 15 1 43 17 63 37 36 33 39 34 95 28 95 -10 167 26 200 99 20 46
13 114 -19 174 l-20 39 -1 -35z"/>
<path d="M2674 2575 c-63 -151 14 -267 173 -261 32 1 63 5 69 9 6 3 17 -5 25
-19 45 -86 212 -74 258 18 11 22 17 51 15 66 -12 66 -27 81 -38 37 -9 -37 -59
-82 -102 -94 -45 -13 -104 -14 -104 -3 1 4 34 23 75 42 41 19 75 38 75 41 0 3
11 12 25 19 13 7 22 17 19 22 -3 4 -9 6 -13 4 -4 -3 -30 -8 -57 -11 -27 -4
-65 -10 -84 -15 -54 -14 -130 -23 -182 -22 -84 1 -117 43 -121 151 -2 60 -12
65 -33 16z"/>
<path d="M2330 1790 c-43 -18 -77 -65 -75 -103 5 -70 24 -92 87 -102 18 -3 47
-8 63 -12 17 -3 39 -7 50 -8 11 -1 21 -7 21 -13 1 -7 2 -16 3 -22 2 -16 49
-42 82 -46 42 -5 84 19 99 56 8 20 18 29 27 26 8 -3 22 -2 31 3 9 5 37 11 61
15 60 8 89 29 96 70 16 83 -30 137 -121 142 -31 2 -67 -2 -82 -7 -26 -10 -25
-11 31 -34 71 -29 87 -41 87 -70 0 -20 -27 -39 -52 -36 -4 0 -18 -13 -32 -30
-26 -30 -31 -25 -20 19 4 14 12 21 20 18 19 -7 18 8 -1 24 -22 18 -40 7 -91
-59 l-47 -61 -43 59 c-43 60 -63 74 -88 65 -23 -9 -28 -33 -6 -27 14 4 20 -3
25 -27 4 -17 4 -34 1 -37 -3 -4 -6 -1 -6 5 0 7 -25 26 -55 43 -79 45 -73 65
34 114 30 14 51 28 48 31 -11 11 -122 14 -147 4z"/>
</g>
</svg>
